<svg id="Layer_1" data-name="Layer 1" xmlns="http://www.w3.org/2000/svg" viewBox="0 0 997.52 498.64">
  <defs>
    <style>
      .cls-1 {
        fill: #203137;
      }

      .cls-2 {
        fill: #dbc3aa;
      }

      .cls-3 {
        fill: #203238;
      }
    </style>
  </defs>
  <g>
    <path class="cls-1" d="M412.88,316.21c-2.45,0-4.43-.83-4.43-1.84V258.71c0-1,2-1.84,4.43-1.84s4.42.83,4.42,1.84v55.66C417.3,315.38,415.32,316.21,412.88,316.21Z"/>
    <path class="cls-1" d="M144.3,316.21c-2.44,0-4.43-.83-4.43-1.84V258.71c0-1,2-1.84,4.43-1.84s4.43.83,4.43,1.84v55.66C148.73,315.38,146.75,316.21,144.3,316.21Z"/>
    <path class="cls-2" d="M351.44,307.36a98.34,98.34,0,1,0-145.7,0l-1,1.69a4.72,4.72,0,0,0,4.09,7.08H348.32a4.72,4.72,0,0,0,4.09-7.08ZM278.59,200.07l24.33,42.13-37.23,64.48H217Zm-2.67,106.61L308,251.06l32.11,55.62Z"/>
    <g>
      <path class="cls-1" d="M134.82,127.63h-5.57V96.75h-7V91.62h19.55v5.13h-7Z"/>
      <path class="cls-1" d="M154.53,127.63H149v-36h5.56Z"/>
      <path class="cls-1" d="M163.27,91.62h8.81c7.07,0,10.42,3.61,10.42,11.28v13.45c0,7.67-3.35,11.28-10.42,11.28h-8.81Zm8.32,30.88c3.94,0,5.35-2,5.35-7.66V104.41c0-5.67-1.41-7.66-5.35-7.66h-2.75V122.5Z"/>
      <path class="cls-1" d="M207.12,96.75H196.38v9.5h7.93v5.13h-7.93V122.5h10.74v5.13H190.81v-36h16.31Z"/>
      <path class="cls-1" d="M228.45,101.66c-.86-3.56-2.48-5.35-4.75-5.35a3.57,3.57,0,0,0-3.62,3.68,5.39,5.39,0,0,0,1.51,3.61c.92,1,.92,1,4.75,4a29.71,29.71,0,0,1,5.35,4.86A10.48,10.48,0,0,1,234,119c0,5.46-4,9.18-9.88,9.18-6.15,0-9.77-3.29-10.91-10.15l5.35-1.56c.7,4.32,2.59,6.48,5.56,6.48a3.92,3.92,0,0,0,4.11-4.11c0-2.27-1.14-3.72-5.35-7-5-3.94-5.24-4.16-6.59-5.88a9.76,9.76,0,0,1-2-6c0-5.18,3.89-8.85,9.4-8.85,5.13,0,8.59,3.07,10.1,9Z"/>
      <path class="cls-1" d="M270,111.33h-6.86v6.75H258.8v-6.75h-6.86v-4.27h6.86v-6.59h4.37v6.59H270Z"/>
      <path class="cls-1" d="M299.68,127.63h-5.57V96.75h-7V91.62H306.7v5.13h-7Z"/>
      <path class="cls-1" d="M319.39,127.63h-5.56v-36h5.56Z"/>
      <path class="cls-1" d="M354.33,127.63H349V101.12l-6.26,26.51h-3.13l-6.21-26.51v26.51h-5.3v-36h8.16l5,22.62,5-22.62h8.05Z"/>
      <path class="cls-1" d="M363.07,91.62h8.32c6.75,0,10.53,3.29,10.53,9.12,0,4.27-1.89,6.81-5.94,8.05,4.86,1.4,6.8,3.89,6.8,8.64,0,6.37-4,10.2-10.69,10.2h-9Zm7.56,14.68c3.4,0,5.62-2,5.62-5.07a4.53,4.53,0,0,0-1.35-3.35c-.92-.81-2.06-1.13-4.16-1.13h-2.11v9.55Zm.81,16.2c3.56,0,5.56-1.83,5.56-5.07,0-3.62-2.48-6-6.37-6h-2V122.5Z"/>
      <path class="cls-1" d="M407.24,96.75H396.5v9.5h7.93v5.13H396.5V122.5h10.74v5.13H390.93v-36h16.31Z"/>
      <path class="cls-1" d="M419.88,127.63h-5.56v-36H423c3.3,0,5.4.64,7.13,2.16,2.16,1.83,3.24,4.59,3.24,8.15,0,4.54-1.62,7.67-4.86,9.34l5.29,16.36H428l-4.75-14.79h-3.35Zm2.05-19.92c2.38,0,3.46-.27,4.32-1.14s1.35-2.37,1.35-4.37a5.93,5.93,0,0,0-1.35-4.32c-.86-.86-1.94-1.13-4.32-1.13h-2.05v11Z"/>
    </g>
    <g>
      <path class="cls-1" d="M196.19,388.93v17.88h-2.86l-1-3.08a7.52,7.52,0,0,1-6.75,3.62,8.14,8.14,0,0,1-7.45-4.22c-1.19-2.32-1.57-4.64-1.57-9.61v-9.93c0-5.73.43-7.78,2.11-10s4.32-3.35,7.61-3.35c3.94,0,6.86,1.67,8.48,4.8.92,1.79,1.29,4,1.29,7.46h-5.56c0-5-1.24-7-4.26-7a3.53,3.53,0,0,0-3.3,1.83c-.65,1.19-.81,2.27-.81,5.19v11a18.77,18.77,0,0,0,.6,5.89,3.88,3.88,0,0,0,3.78,2.7c2.91,0,4.16-2.11,4.16-7.13v-1.46H186v-4.59Z"/>
      <path class="cls-1" d="M209.9,401.68H221v5.13H204.34v-36h5.56Z"/>
      <path class="cls-1" d="M234.53,399l-1.46,7.83h-5.45l6.91-36h7.61l7.29,36h-5.72L242.2,399Zm3.78-21.28-2.92,16.15h5.89Z"/>
      <path class="cls-1" d="M282.69,406.81H277.4V380.29l-6.26,26.52H268l-6.21-26.52v26.52h-5.3v-36h8.16l5,22.62,5-22.62h8Z"/>
      <path class="cls-1" d="M297,406.81h-5.56v-36h9.24c3.61,0,5.88.7,7.56,2.32,1.94,1.84,2.86,4.54,2.86,8.37s-.92,6.59-2.86,8.42c-1.68,1.62-3.95,2.33-7.56,2.33H297Zm2.43-19.71c4.49,0,5.89-1.35,5.89-5.62s-1.4-5.56-5.89-5.56H297V387.1Z"/>
      <path class="cls-1" d="M324.17,406.81H318.6v-36h5.57Z"/>
      <path class="cls-1" d="M352.89,406.81h-5l-9.72-24v24h-5.3v-36h5.62l9.07,22.41V370.79h5.29Z"/>
      <path class="cls-1" d="M380.86,388.93v17.88H378l-1-3.08a7.53,7.53,0,0,1-6.75,3.62,8.17,8.17,0,0,1-7.46-4.22c-1.18-2.32-1.56-4.64-1.56-9.61v-9.93c0-5.73.43-7.78,2.11-10s4.31-3.35,7.61-3.35c3.94,0,6.86,1.67,8.48,4.8.92,1.79,1.29,4,1.29,7.46h-5.56c0-5-1.24-7-4.27-7a3.51,3.51,0,0,0-3.29,1.83c-.65,1.19-.81,2.27-.81,5.19v11a19.16,19.16,0,0,0,.59,5.89,3.9,3.9,0,0,0,3.79,2.7c2.91,0,4.15-2.11,4.15-7.13v-1.46h-4.59v-4.59Z"/>
    </g>
    <path class="cls-1" d="M392.56,334.77H164.61a4.43,4.43,0,0,1,0-8.86h228a4.43,4.43,0,1,1,0,8.86Z"/>
    <path class="cls-1" d="M372.25,353.32H184.93a4.43,4.43,0,1,1,0-8.85H372.25a4.43,4.43,0,1,1,0,8.85Z"/>
    <path class="cls-1" d="M430.12,239.69a4.43,4.43,0,0,0,7.67-4.43L417.3,199.78v-5.54l12.82,22.2a4.43,4.43,0,0,0,7.67-4.43L417.3,176.53v-.67c0-1.35-1.78-2.44-4-2.55h-.76c-2.27.11-4.05,1.2-4.05,2.55v.67L388,212a4.43,4.43,0,0,0,7.67,4.43l12.82-22.2v5.54L388,235.26a4.43,4.43,0,0,0,7.67,4.43l12.82-22.19V223L388,258.52a4.43,4.43,0,0,0,1.62,6,4.35,4.35,0,0,0,2.21.6,4.43,4.43,0,0,0,3.84-2.22l12.82-22.19v5.54L388,281.77a4.43,4.43,0,0,0,7.67,4.43l17.17-29.74H413l17.17,29.74a4.43,4.43,0,0,0,7.67-4.43L417.3,246.29v-5.54l12.82,22.19a4.43,4.43,0,0,0,3.84,2.22,4.35,4.35,0,0,0,2.21-.6,4.42,4.42,0,0,0,1.62-6L417.3,223V217.5Z"/>
    <path class="cls-1" d="M161.54,239.69a4.43,4.43,0,0,0,7.68-4.43l-20.49-35.48v-5.54l12.81,22.2a4.43,4.43,0,0,0,7.68-4.43l-20.49-35.48v-.65c0-1.36-1.78-2.46-4-2.57h-.76c-2.26.11-4,1.21-4,2.57v.65L119.39,212a4.43,4.43,0,0,0,7.67,4.43l12.81-22.2v5.54l-20.48,35.48a4.43,4.43,0,0,0,7.67,4.43l12.81-22.19V223l-20.48,35.48a4.42,4.42,0,0,0,1.62,6,4.35,4.35,0,0,0,2.21.6,4.43,4.43,0,0,0,3.84-2.22l12.81-22.19v5.54l-20.48,35.48a4.43,4.43,0,0,0,7.67,4.43L144,256.85l.3,0,.3,0,16.94,29.35a4.43,4.43,0,0,0,7.68-4.43l-20.49-35.48v-5.54l12.81,22.19a4.43,4.43,0,0,0,3.84,2.22,4.3,4.3,0,0,0,2.21-.6,4.42,4.42,0,0,0,1.63-6L148.73,223V217.5Z"/>
    <path class="cls-1" d="M412.12,316.21H145.06c-2.86,0-5.19-2-5.19-4.43s2.33-4.43,5.19-4.43H412.12c2.86,0,5.18,2,5.18,4.43S415,316.21,412.12,316.21Z"/>
  </g>
  <circle class="cls-2" cx="734.63" cy="249.32" r="164.31"/>
  <path class="cls-3" d="M734.63,421.63c-95,0-172.31-77.3-172.31-172.31S639.62,77,734.63,77s172.31,77.3,172.31,172.31S829.64,421.63,734.63,421.63Zm0-328.62c-86.19,0-156.31,70.12-156.31,156.31s70.12,156.31,156.31,156.31,156.31-70.12,156.31-156.31S820.82,93,734.63,93Z"/>
  <path class="cls-1" d="M843.76,304.59c-2,0-3.6-.67-3.6-1.48V258.35c0-.82,1.61-1.48,3.6-1.48s3.6.66,3.6,1.48v44.76C847.36,303.92,845.74,304.59,843.76,304.59Z"/>
  <path class="cls-1" d="M625.5,304.59c-2,0-3.6-.67-3.6-1.48V258.35c0-.82,1.61-1.48,3.6-1.48s3.6.66,3.6,1.48v44.76C629.1,303.92,627.48,304.59,625.5,304.59Z"/>
  <path class="cls-1" d="M827.25,319.67H642a3.6,3.6,0,0,1,0-7.2H827.25a3.6,3.6,0,1,1,0,7.2Z"/>
  <path class="cls-1" d="M810.74,334.75H658.51a3.6,3.6,0,0,1,0-7.2H810.74a3.6,3.6,0,1,1,0,7.2Z"/>
  <path class="cls-1" d="M857.77,242.4a3.57,3.57,0,0,0,3.12,1.8,3.51,3.51,0,0,0,1.79-.48A3.59,3.59,0,0,0,864,238.8L847.36,210v-4.5l10.41,18a3.59,3.59,0,0,0,3.12,1.8,3.52,3.52,0,0,0,1.79-.49,3.58,3.58,0,0,0,1.32-4.91l-16.64-28.84v-.52c0-1.11-1.45-2-3.29-2.09h-.62c-1.84.09-3.29,1-3.29,2.09v.52l-16.65,28.84a3.6,3.6,0,0,0,1.32,4.91,3.52,3.52,0,0,0,1.79.49,3.59,3.59,0,0,0,3.12-1.8l10.42-18V210L823.51,238.8a3.61,3.61,0,0,0,1.32,4.92,3.51,3.51,0,0,0,1.79.48,3.57,3.57,0,0,0,3.12-1.8l10.42-18v4.5L823.51,257.7a3.61,3.61,0,0,0,1.32,4.92,3.51,3.51,0,0,0,1.79.48,3.57,3.57,0,0,0,3.12-1.8l10.42-18v4.5L823.51,276.6a3.6,3.6,0,1,0,6.23,3.6l13.72-23.75.3,0,.3,0,13.71,23.75a3.6,3.6,0,1,0,6.23-3.6l-16.64-28.83v-4.5l10.41,18a3.57,3.57,0,0,0,3.12,1.8,3.51,3.51,0,0,0,1.79-.48A3.59,3.59,0,0,0,864,257.7l-16.64-28.83v-4.5Z"/>
  <path class="cls-1" d="M639.51,242.4a3.6,3.6,0,1,0,6.23-3.6L629.1,210v-4.5l10.41,18a3.6,3.6,0,0,0,6.23-3.6L629.1,191.07v-.51c0-1.11-1.45-2-3.29-2.1h-.62c-1.84.09-3.29,1-3.29,2.1v.51l-16.65,28.84a3.6,3.6,0,0,0,1.32,4.91,3.55,3.55,0,0,0,1.79.49,3.62,3.62,0,0,0,3.13-1.8l10.41-18V210L605.25,238.8a3.61,3.61,0,0,0,1.32,4.92,3.54,3.54,0,0,0,1.79.48,3.6,3.6,0,0,0,3.13-1.8l10.41-18v4.5L605.25,257.7a3.61,3.61,0,0,0,1.32,4.92,3.54,3.54,0,0,0,1.79.48,3.6,3.6,0,0,0,3.13-1.8l10.41-18v4.5L605.25,276.6a3.6,3.6,0,0,0,6.24,3.6L625,256.84a4.58,4.58,0,0,0,.53,0,4.41,4.41,0,0,0,.52,0l13.49,23.36a3.62,3.62,0,0,0,3.12,1.8,3.68,3.68,0,0,0,1.8-.48,3.6,3.6,0,0,0,1.31-4.92L629.1,247.77v-4.5l10.41,18a3.6,3.6,0,1,0,6.23-3.6L629.1,228.87v-4.5Z"/>
  <path class="cls-1" d="M793.83,297.4a79.92,79.92,0,1,0-118.4,0l-.8,1.37a3.84,3.84,0,0,0,3.33,5.76H791.29a3.84,3.84,0,0,0,3.33-5.76Zm-59.2-87.2,19.77,34.25-30.26,52.39H684.61Zm-2.17,86.64,26.09-45.2,26.1,45.2Z"/>
  <path class="cls-1" d="M843.14,304.59h-217c-2.32,0-4.21-1.62-4.21-3.6s1.89-3.6,4.21-3.6h217c2.33,0,4.21,1.61,4.21,3.6S845.47,304.59,843.14,304.59Z"/>
  <g>
    <path class="cls-1" d="M656.19,170.21l-2.44,2.5-13.91-13.59-3.07,3.13L634.46,160l8.61-8.8,2.31,2.26-3.09,3.16Z"/>
    <path class="cls-1" d="M665,162.34l-2.7,2.24L647.85,147.1l2.7-2.23Z"/>
    <path class="cls-1" d="M656.37,140.28l4.64-3c3.73-2.44,6.74-1.69,9.39,2.35l4.63,7.09c2.64,4,2.13,7.1-1.6,9.54l-4.64,3Zm15,13.41c2.07-1.36,2.1-2.92.17-5.88L668,142.32c-2-3-3.39-3.56-5.46-2.2l-1.45.95L670,154.64Z"/>
    <path class="cls-1" d="M683.86,128.57l-6.12,2.89,2.56,5.41,4.52-2.14,1.38,2.92-4.52,2.14,3,6.33,6.11-2.89,1.38,2.92-9.28,4.39-9.7-20.5,9.28-4.39Z"/>
    <path class="cls-1" d="M699.3,126.49c-1.19-2-2.5-2.74-3.87-2.31a2.24,2.24,0,0,0-1.48,2.88,3.4,3.4,0,0,0,1.59,1.89,16,16,0,0,0,3.6,1.48,19,19,0,0,1,4.12,1.91,6.61,6.61,0,0,1,2.64,3.52c1,3.28-.67,6.27-4.21,7.38-3.7,1.15-6.49-.14-8.46-4.05l2.91-1.95c1.24,2.47,2.78,3.41,4.56,2.85a2.47,2.47,0,0,0,1.7-3.24c-.43-1.36-1.39-2-4.53-3.21-3.76-1.42-3.93-1.51-5.07-2.3a6.17,6.17,0,0,1-2.33-3.22c-1-3.12.67-6.05,4-7.09,3.08-1,5.74.23,7.76,3.52Z"/>
    <path class="cls-1" d="M729.69,127.72a11.75,11.75,0,0,1-1.27,5.79,4.21,4.21,0,0,0,2.44,1.2l.31,3.39a6.74,6.74,0,0,1-4.47-1.84c-1.41,1.71-2.58,2.4-4.24,2.55a5.32,5.32,0,0,1-5.66-5.07c-.2-2.06.51-4,2.4-6.75a11.76,11.76,0,0,1-2-5.31c-.3-3.28,1.41-5.77,4.19-6,2.43-.23,4.37,1.54,4.63,4.25a6.87,6.87,0,0,1-1,4c-.47.83-.59,1-2,3.12a20.08,20.08,0,0,0,3,4.16,8.43,8.43,0,0,0,.59-3.57Zm-6.87-8.07c-.11-1.15-.65-1.78-1.49-1.7s-1.41,1-1.28,2.44a9.66,9.66,0,0,0,1.25,3.84A7,7,0,0,0,722.82,119.65ZM720.21,133c.13,1.45,1.16,2.59,2.28,2.48a2.78,2.78,0,0,0,2-1.34,16.84,16.84,0,0,1-3.47-4.26A5.08,5.08,0,0,0,720.21,133Z"/>
    <path class="cls-1" d="M748.33,138.75l-3.49-.37L746.91,119l-4.37-.47.35-3.21,12.24,1.3-.35,3.21-4.39-.46Z"/>
    <path class="cls-1" d="M760,140.81l-3.42-.74,4.78-22.17,3.43.74Z"/>
    <path class="cls-1" d="M780.16,147.3,777,146.17l5.66-15.7-9.37,14.36-1.86-.67,2-17-5.67,15.7-3.13-1.13,7.69-21.33,4.83,1.74-1.89,14.47,7.81-12.33,4.76,1.72Z"/>
    <path class="cls-1" d="M795.44,129.66l4.55,2.58c3.7,2.1,4.75,5.08,2.93,8.27a4.74,4.74,0,0,1-5.75,2.56c2.23,2.28,2.52,4.25,1.05,6.85-2,3.49-5.36,4.35-9,2.27l-4.94-2.8Zm-5,19.52c2,1.1,3.62.72,4.62-1.06,1.12-2,.5-4.05-1.63-5.26l-1.09-.62-3.44,6.06Zm4.59-9.13c1.86,1.06,3.69.65,4.65-1a2.86,2.86,0,0,0,.3-2.26c-.25-.72-.77-1.25-1.93-1.91l-1.15-.65-3,5.23Z"/>
    <path class="cls-1" d="M818.61,148.83l-5.37-4.11-3.64,4.75,4,3-2,2.56-4-3-4.26,5.56,5.37,4.12-2,2.56L798.63,158l13.79-18,8.16,6.25Z"/>
    <path class="cls-1" d="M812.06,169.21l-2.47-2.48,16.08-16,3.86,3.88a6.29,6.29,0,0,1,2.2,4.14,6.4,6.4,0,0,1-2.2,5.07c-2,2-4.15,2.68-6.33,2l-5,9.62-2.59-2.6,4.5-8.69-1.49-1.5Zm9.8-7.93c1.06,1.06,1.66,1.43,2.43,1.43a3.75,3.75,0,0,0,2.55-1.34,3.7,3.7,0,0,0,1.33-2.52c0-.77-.36-1.37-1.41-2.43l-.91-.92-4.9,4.87Z"/>
  </g>
  <g>
    <path class="cls-1" d="M682.64,363.9l-5.16,10-1.61-.83.32-2a4.73,4.73,0,0,1-4.82.08,5.11,5.11,0,0,1-3-4.51c0-1.64.46-3.05,1.9-5.83l2.86-5.56c1.66-3.2,2.49-4.22,4.07-5a5.68,5.68,0,0,1,5.22.33,5.58,5.58,0,0,1,3.36,5.13,10,10,0,0,1-1.43,4.55l-3.11-1.61c1.44-2.78,1.33-4.28-.36-5.16a2.2,2.2,0,0,0-2.37.08c-.71.47-1.11,1-1.95,2.66l-3.18,6.17a12,12,0,0,0-1.37,3.46,2.45,2.45,0,0,0,1.33,2.6c1.64.85,2.94,0,4.39-2.78l.42-.82-2.57-1.32L677,361Z"/>
    <path class="cls-1" d="M688.34,374.75l6.56,2.36-1.09,3L684,376.61l7.68-21.35,3.29,1.19Z"/>
    <path class="cls-1" d="M705,378l-1.91,4.63-3.37-.7,8.94-21.31,4.69,1-.18,23.14-3.53-.74.09-5Zm5.09-12.63-3.89,9.58,3.63.76Z"/>
    <path class="cls-1" d="M736.34,386.44l-3.33-.16.78-16.68-4.72,16.5-2-.09L724,369.15l-.78,16.67-3.32-.15,1-22.66,5.13.24,2.46,14.38,3.83-14.08,5.06.23Z"/>
    <path class="cls-1" d="M747.55,385.62l-3.48.38-2.47-22.54,5.78-.63c2.26-.25,3.73,0,4.89.93,1.34,1,2.1,2.64,2.37,5s-.13,4.19-1.22,5.47c-.93,1.13-2.31,1.72-4.57,2l-2.3.25Zm.17-12.5c2.81-.31,3.59-1.25,3.3-3.92s-1.26-3.39-4.07-3.08l-1.52.17.77,7Z"/>
    <path class="cls-1" d="M765.93,382.62l-3.42.76-4.89-22.15,3.42-.75Z"/>
    <path class="cls-1" d="M784.75,376.9l-3,1-10.66-12.32L776,379.88,772.84,381l-7.31-21.46,3.35-1.14,10,11.51-4.55-13.35,3.16-1.08Z"/>
    <path class="cls-1" d="M797.38,358.36l5.13,10-1.6.82-1.46-1.43a4.75,4.75,0,0,1-2.75,4,5.14,5.14,0,0,1-5.38-.23c-1.33-1-2.21-2.15-3.64-4.93L784.83,361c-1.64-3.21-2-4.48-1.69-6.2a5.72,5.72,0,0,1,3.31-4.06,5.59,5.59,0,0,1,6.13.26,10,10,0,0,1,2.86,3.8l-3.11,1.6c-1.43-2.79-2.71-3.58-4.41-2.71a2.2,2.2,0,0,0-1.32,2c0,.85.2,1.5,1,3.14L790.8,365a11.79,11.79,0,0,0,2,3.13,2.46,2.46,0,0,0,2.9.43c1.63-.84,1.72-2.38.28-5.19l-.42-.82L793,363.85l-1.32-2.57Z"/>
  </g>
</svg>
