<svg id="Layer_1" data-name="Layer 1" xmlns="http://www.w3.org/2000/svg" viewBox="0 0 997.52 498.64">
  <defs>
    <style>
      .cls-1 {
        fill: #82512e;
      }

      .cls-2 {
        fill: #d1c8bf;
      }

      .cls-3, .cls-7 {
        font-size: 54px;
      }

      .cls-14, .cls-3, .cls-7 {
        fill: #2e2014;
        font-family: AlternateGotNo3D, Alternate Gothic No3 D;
      }

      .cls-3 {
        letter-spacing: 0.07em;
      }

      .cls-4, .cls-7 {
        letter-spacing: 0.06em;
      }

      .cls-5 {
        letter-spacing: 0.07em;
      }

      .cls-6 {
        letter-spacing: 0.08em;
      }

      .cls-8 {
        letter-spacing: 0.08em;
      }

      .cls-9 {
        letter-spacing: 0.06em;
      }

      .cls-10 {
        letter-spacing: 0.07em;
      }

      .cls-11 {
        fill: #31b3c2;
      }

      .cls-12 {
        fill: #347a4b;
      }

      .cls-13 {
        fill: none;
        stroke: #2e2014;
        stroke-miterlimit: 10;
        stroke-width: 16px;
      }

      .cls-14 {
        font-size: 34px;
      }
    </style>
  </defs>
  <path class="cls-1" d="M412.88,316.21c-2.45,0-4.43-.83-4.43-1.84V258.71c0-1,2-1.84,4.43-1.84s4.42.83,4.42,1.84v55.66C417.3,315.38,415.32,316.21,412.88,316.21Z"/>
  <path class="cls-1" d="M144.3,316.21c-2.44,0-4.43-.83-4.43-1.84V258.71c0-1,2-1.84,4.43-1.84s4.43.83,4.43,1.84v55.66C148.73,315.38,146.75,316.21,144.3,316.21Z"/>
  <path class="cls-1" d="M843.76,304.59c-2,0-3.6-.67-3.6-1.48V258.35c0-.82,1.61-1.48,3.6-1.48s3.6.66,3.6,1.48v44.76C847.36,303.92,845.74,304.59,843.76,304.59Z"/>
  <path class="cls-1" d="M625.5,304.59c-2,0-3.6-.67-3.6-1.48V258.35c0-.82,1.61-1.48,3.6-1.48s3.6.66,3.6,1.48v44.76C629.1,303.92,627.48,304.59,625.5,304.59Z"/>
  <path class="cls-2" d="M351.44,307.36a98.34,98.34,0,1,0-145.7,0l-1,1.69a4.72,4.72,0,0,0,4.09,7.08H348.32a4.72,4.72,0,0,0,4.09-7.08ZM278.59,200.07l24.33,42.13-37.23,64.48H217Zm-2.67,106.61L308,251.06l32.11,55.62Z"/>
  <text class="cls-3" transform="translate(121.91 127.63)">T<tspan class="cls-4" x="24.3" y="0">ID</tspan><tspan class="cls-5" x="66.15" y="0">E</tspan><tspan class="cls-4" x="90.23" y="0">S + </tspan><tspan class="cls-6" x="164.86" y="0">T</tspan><tspan class="cls-4" x="189.16" y="0">IMBER</tspan></text>
  <text class="cls-7" transform="translate(174.15 406.81)">G<tspan class="cls-8" x="27.43" y="0">L</tspan><tspan class="cls-9" x="52" y="0">AM</tspan><tspan class="cls-10" x="114.53" y="0">P</tspan><tspan x="141.7" y="0">ING</tspan></text>
  <path class="cls-11" d="M392.56,334.77H164.61a4.43,4.43,0,0,1,0-8.86h228a4.43,4.43,0,1,1,0,8.86Z"/>
  <path class="cls-11" d="M372.25,353.32H184.93a4.43,4.43,0,1,1,0-8.85H372.25a4.43,4.43,0,1,1,0,8.85Z"/>
  <path class="cls-12" d="M430.12,239.69a4.43,4.43,0,0,0,7.67-4.43L417.3,199.78v-5.54l12.82,22.2a4.43,4.43,0,0,0,7.67-4.43L417.3,176.53v-.67c0-1.35-1.78-2.44-4-2.55h-.76c-2.27.11-4.05,1.2-4.05,2.55v.67L388,212a4.43,4.43,0,0,0,7.67,4.43l12.82-22.2v5.54L388,235.26a4.43,4.43,0,0,0,7.67,4.43l12.82-22.19V223L388,258.52a4.43,4.43,0,0,0,1.62,6,4.35,4.35,0,0,0,2.21.6,4.43,4.43,0,0,0,3.84-2.22l12.82-22.19v5.54L388,281.77a4.43,4.43,0,0,0,7.67,4.43l17.17-29.74H413l17.17,29.74a4.43,4.43,0,0,0,7.67-4.43L417.3,246.29v-5.54l12.82,22.19a4.43,4.43,0,0,0,3.84,2.22,4.35,4.35,0,0,0,2.21-.6,4.42,4.42,0,0,0,1.62-6L417.3,223V217.5Z"/>
  <path class="cls-12" d="M161.54,239.69a4.43,4.43,0,0,0,7.68-4.43l-20.49-35.48v-5.54l12.81,22.2a4.43,4.43,0,0,0,7.68-4.43l-20.49-35.48v-.65c0-1.36-1.78-2.46-4-2.57h-.76c-2.26.11-4,1.21-4,2.57v.65L119.39,212a4.43,4.43,0,0,0,7.67,4.43l12.81-22.2v5.54l-20.48,35.48a4.43,4.43,0,0,0,7.67,4.43l12.81-22.19V223l-20.48,35.48a4.42,4.42,0,0,0,1.62,6,4.35,4.35,0,0,0,2.21.6,4.43,4.43,0,0,0,3.84-2.22l12.81-22.19v5.54l-20.48,35.48a4.43,4.43,0,0,0,7.67,4.43L144,256.85l.3,0,.3,0,16.94,29.35a4.43,4.43,0,0,0,7.68-4.43l-20.49-35.48v-5.54l12.81,22.19a4.43,4.43,0,0,0,3.84,2.22,4.3,4.3,0,0,0,2.21-.6,4.42,4.42,0,0,0,1.63-6L148.73,223V217.5Z"/>
  <path class="cls-11" d="M412.12,316.21H145.06c-2.86,0-5.19-2-5.19-4.43s2.33-4.43,5.19-4.43H412.12c2.86,0,5.18,2,5.18,4.43S415,316.21,412.12,316.21Z"/>
  <circle class="cls-13" cx="734.63" cy="249.32" r="164.31"/>
  <path class="cls-11" d="M827.25,319.67H642a3.6,3.6,0,0,1,0-7.2H827.25a3.6,3.6,0,1,1,0,7.2Z"/>
  <path class="cls-11" d="M810.74,334.75H658.51a3.6,3.6,0,0,1,0-7.2H810.74a3.6,3.6,0,1,1,0,7.2Z"/>
  <path class="cls-12" d="M857.77,242.4a3.57,3.57,0,0,0,3.12,1.8,3.51,3.51,0,0,0,1.79-.48A3.59,3.59,0,0,0,864,238.8L847.36,210v-4.5l10.41,18a3.59,3.59,0,0,0,3.12,1.8,3.52,3.52,0,0,0,1.79-.49,3.58,3.58,0,0,0,1.32-4.91l-16.64-28.84v-.52c0-1.11-1.45-2-3.29-2.09h-.62c-1.84.09-3.29,1-3.29,2.09v.52l-16.65,28.84a3.6,3.6,0,0,0,1.32,4.91,3.52,3.52,0,0,0,1.79.49,3.59,3.59,0,0,0,3.12-1.8l10.42-18V210L823.51,238.8a3.61,3.61,0,0,0,1.32,4.92,3.51,3.51,0,0,0,1.79.48,3.57,3.57,0,0,0,3.12-1.8l10.42-18v4.5L823.51,257.7a3.61,3.61,0,0,0,1.32,4.92,3.51,3.51,0,0,0,1.79.48,3.57,3.57,0,0,0,3.12-1.8l10.42-18v4.5L823.51,276.6a3.6,3.6,0,1,0,6.23,3.6l13.72-23.75.3,0,.3,0,13.71,23.75a3.6,3.6,0,1,0,6.23-3.6l-16.64-28.83v-4.5l10.41,18a3.57,3.57,0,0,0,3.12,1.8,3.51,3.51,0,0,0,1.79-.48A3.59,3.59,0,0,0,864,257.7l-16.64-28.83v-4.5Z"/>
  <path class="cls-12" d="M639.51,242.4a3.6,3.6,0,1,0,6.23-3.6L629.1,210v-4.5l10.41,18a3.6,3.6,0,0,0,6.23-3.6L629.1,191.07v-.51c0-1.11-1.45-2-3.29-2.1h-.62c-1.84.09-3.29,1-3.29,2.1v.51l-16.65,28.84a3.6,3.6,0,0,0,1.32,4.91,3.55,3.55,0,0,0,1.79.49,3.62,3.62,0,0,0,3.13-1.8l10.41-18V210L605.25,238.8a3.61,3.61,0,0,0,1.32,4.92,3.54,3.54,0,0,0,1.79.48,3.6,3.6,0,0,0,3.13-1.8l10.41-18v4.5L605.25,257.7a3.61,3.61,0,0,0,1.32,4.92,3.54,3.54,0,0,0,1.79.48,3.6,3.6,0,0,0,3.13-1.8l10.41-18v4.5L605.25,276.6a3.6,3.6,0,0,0,6.24,3.6L625,256.84a4.58,4.58,0,0,0,.53,0,4.41,4.41,0,0,0,.52,0l13.49,23.36a3.62,3.62,0,0,0,3.12,1.8,3.68,3.68,0,0,0,1.8-.48,3.6,3.6,0,0,0,1.31-4.92L629.1,247.77v-4.5l10.41,18a3.6,3.6,0,1,0,6.23-3.6L629.1,228.87v-4.5Z"/>
  <path class="cls-2" d="M793.83,297.4a79.92,79.92,0,1,0-118.4,0l-.8,1.37a3.84,3.84,0,0,0,3.33,5.76H791.29a3.84,3.84,0,0,0,3.33-5.76Zm-59.2-87.2,19.77,34.25-30.26,52.39H684.61Zm-2.17,86.64,26.09-45.2,26.1,45.2Z"/>
  <path class="cls-11" d="M843.14,304.59h-217c-2.32,0-4.21-1.62-4.21-3.6s1.89-3.6,4.21-3.6h217c2.33,0,4.21,1.61,4.21,3.6S845.47,304.59,843.14,304.59Z"/>
  <g>
    <g>
      <text class="cls-14" transform="translate(650.51 176.02) rotate(-45.65)">T</text>
      <text class="cls-14" transform="translate(660.98 165.68) rotate(-39.61)">I</text>
      <text class="cls-14" transform="matrix(0.84, -0.55, 0.55, 0.84, 667.34, 160.21)">D</text>
      <text class="cls-14" transform="translate(681.33 151.28) rotate(-25.31)">E</text>
      <text class="cls-14" transform="translate(694.39 145.17) rotate(-17.39)">S</text>
      <text class="cls-14" transform="translate(709.69 140.7) rotate(-11.53)"> </text>
      <text class="cls-14" transform="translate(716.18 139.16) rotate(-5.35)">&amp;</text>
      <text class="cls-14" transform="matrix(1, 0.02, -0.02, 1, 733.47, 137.9)"> </text>
      <text class="cls-14" transform="matrix(0.99, 0.11, -0.11, 0.99, 740.25, 137.89)">T</text>
      <text class="cls-14" transform="matrix(0.98, 0.21, -0.21, 0.98, 754.84, 139.7)">I</text>
      <text class="cls-14" transform="translate(763.02 141.12) rotate(19.82)">M</text>
      <text class="cls-14" transform="matrix(0.87, 0.49, -0.49, 0.87, 782.74, 148.53)">B</text>
      <text class="cls-14" transform="translate(797.26 156.97) rotate(37.45)">E</text>
      <text class="cls-14" transform="translate(808.37 165.5) rotate(45.17)">R</text>
    </g>
    <g>
      <text class="cls-14" transform="translate(665.15 367.54) rotate(27.31)">G</text>
      <text class="cls-14" transform="matrix(0.94, 0.34, -0.34, 0.94, 682.32, 376.02)">L</text>
      <text class="cls-14" transform="translate(698.81 381.7) rotate(11.88)">A</text>
      <text class="cls-14" transform="translate(718.13 385.59) rotate(2.69)">M</text>
      <text class="cls-14" transform="translate(742.35 386.19) rotate(-6.25)">P</text>
      <text class="cls-14" transform="matrix(0.98, -0.22, 0.22, 0.98, 760.82, 383.75)">I</text>
      <text class="cls-14" transform="translate(771.2 381.51) rotate(-18.81)">N</text>
      <text class="cls-14" transform="matrix(0.89, -0.46, 0.46, 0.89, 790.17, 374.7)">G</text>
    </g>
  </g>
</svg>
