<svg id="Layer_1" data-name="Layer 1" xmlns="http://www.w3.org/2000/svg" viewBox="0 0 180 180">
  <defs>
    <style>
      .cls-1 {
        fill: #fff;
      }

      .cls-2 {
        fill: #010101;
      }
    </style>
  </defs>
  <circle class="cls-1" cx="90.2" cy="90.45" r="83.45"/>
  <g>
    <path class="cls-2" d="M90,.26a90,90,0,1,0,90,90A90.1,90.1,0,0,0,90,.26ZM90,171.9a81.65,81.65,0,1,1,81.64-81.64A81.73,81.73,0,0,1,90,171.9Z"/>
    <path class="cls-2" d="M138.38,123.24H41.62a1.88,1.88,0,0,0,0,3.76h96.76a1.88,1.88,0,0,0,0-3.76Z"/>
    <path class="cls-2" d="M129.76,131.12H50.24a1.88,1.88,0,0,0,0,3.76h79.52a1.88,1.88,0,0,0,0-3.76Z"/>
    <path class="cls-2" d="M154.32,86.64a1.87,1.87,0,0,0,1.63.94,1.87,1.87,0,0,0,1.62-2.82L148.88,69.7V67.35l5.44,9.42a1.87,1.87,0,0,0,1.63.94,1.87,1.87,0,0,0,1.62-2.82L148.63,59.4l0,0-.06-.1-.08-.1-.09-.1-.07-.08-.1-.08-.1-.08-.1-.06-.05,0-.06,0-.1,0-.12-.05-.12,0-.11,0-.12,0-.13,0h-.36l-.13,0-.12,0-.11,0-.12,0-.12.05-.1,0-.06,0-.05,0-.1.06-.1.08-.1.08-.07.08-.09.1-.08.1-.06.1,0,0-8.94,15.49a1.88,1.88,0,1,0,3.25,1.88l5.44-9.42V69.7l-8.69,15.06a1.88,1.88,0,1,0,3.25,1.88l5.44-9.42v2.36l-8.69,15.06a1.87,1.87,0,0,0,.68,2.56,1.91,1.91,0,0,0,.94.26,1.88,1.88,0,0,0,1.63-.95l5.44-9.42v2.36l-8.69,15.06a1.87,1.87,0,0,0,.68,2.56,1.87,1.87,0,0,0,2.57-.68L145.12,97v18.39H120.93a41.75,41.75,0,1,0-61.85,0H34.88V97l5.44,9.42a1.88,1.88,0,0,0,3.25-1.88L34.88,89.45V87.09l5.44,9.42a1.88,1.88,0,0,0,1.63.95,1.91,1.91,0,0,0,.94-.26,1.87,1.87,0,0,0,.68-2.56L34.88,79.58V77.22l5.44,9.42a1.87,1.87,0,0,0,1.63.94,1.87,1.87,0,0,0,1.62-2.82L34.88,69.7V67.35l5.44,9.42a1.87,1.87,0,0,0,1.63.94,1.87,1.87,0,0,0,1.62-2.82L34.63,59.4l0,0-.06-.1-.08-.1-.09-.1L34.29,59l-.1-.08-.1-.08-.1-.06-.05,0-.06,0-.1,0-.12-.05-.12,0-.11,0-.12,0-.13,0h-.36l-.13,0-.12,0-.11,0-.12,0-.12.05-.1,0-.06,0-.05,0-.1.06-.1.08-.1.08-.07.08-.09.1-.08.1-.06.1,0,0L22.43,74.89a1.88,1.88,0,1,0,3.25,1.88l5.44-9.42V69.7L22.43,84.76a1.88,1.88,0,1,0,3.25,1.88l5.44-9.42v2.36L22.43,94.64a1.87,1.87,0,0,0,.68,2.56,1.91,1.91,0,0,0,.94.26,1.88,1.88,0,0,0,1.63-.95l5.44-9.42v2.36l-8.69,15.06a1.87,1.87,0,0,0,.68,2.56,1.87,1.87,0,0,0,2.57-.68L31.12,97v20.27A1.88,1.88,0,0,0,33,119.12H147a1.88,1.88,0,0,0,1.88-1.88V97l5.44,9.42a1.88,1.88,0,0,0,3.25-1.88l-8.69-15.06V87.09l5.44,9.42a1.88,1.88,0,0,0,1.63.95,1.91,1.91,0,0,0,.94-.26,1.87,1.87,0,0,0,.68-2.56l-8.69-15.06V77.22ZM63.87,115.08,90,69.83l10.33,17.88L84.52,115.08Zm25,0L102.5,91.47l13.63,23.61Z"/>
    <polygon class="cls-2" points="40.49 43.14 47.75 50.24 49.03 48.94 41.77 41.84 43.38 40.18 42.18 39.01 37.68 43.6 38.89 44.78 40.49 43.14"/>
    <rect class="cls-2" x="48.24" y="34.92" width="1.83" height="11.85" transform="translate(-14.76 40.72) rotate(-39.61)"/>
    <path class="cls-2" d="M58,41.63c1.94-1.27,2.21-2.87.83-5L56.45,33c-1.38-2.11-3-2.5-4.9-1.23l-2.42,1.59,6.48,9.91Zm-5.7-8.41c1.09-.71,1.83-.41,2.85,1.15l1.88,2.87c1,1.54,1,2.36-.09,3.07l-.76.5-4.64-7.09Z"/>
    <polygon class="cls-2" points="67.83 36.37 67.11 34.84 63.91 36.35 62.35 33.05 64.71 31.93 63.98 30.41 61.62 31.52 60.29 28.7 63.48 27.19 62.76 25.66 57.91 27.96 62.98 38.66 67.83 36.37"/>
    <path class="cls-2" d="M68.15,28.64a9.87,9.87,0,0,0,2.65,1.2c1.64.62,2.14,1,2.37,1.67a1.28,1.28,0,0,1-.89,1.69c-.93.3-1.74-.2-2.38-1.48l-1.52,1c1,2,2.49,2.72,4.42,2.12A3,3,0,0,0,75,31a3.44,3.44,0,0,0-1.38-1.84,10,10,0,0,0-2.16-1,8.26,8.26,0,0,1-1.87-.77,1.77,1.77,0,0,1-.83-1,1.17,1.17,0,0,1,.77-1.51c.71-.22,1.39.18,2,1.21l1.52-1c-1.06-1.72-2.45-2.34-4-1.84A2.88,2.88,0,0,0,66.94,27,3.17,3.17,0,0,0,68.15,28.64Z"/>
    <path class="cls-2" d="M80.69,29.89a2.78,2.78,0,0,0,3,2.65,3.05,3.05,0,0,0,2.21-1.33,3.52,3.52,0,0,0,2.34.95L88,30.4a2.31,2.31,0,0,1-1.27-.63,6.16,6.16,0,0,0,.66-3l-1.61,0a4.15,4.15,0,0,1-.31,1.86,10.89,10.89,0,0,1-1.56-2.17c.74-1.1.8-1.2,1-1.63a3.51,3.51,0,0,0,.51-2.1,2.24,2.24,0,0,0-2.42-2.22c-1.45.14-2.34,1.43-2.18,3.15a6.13,6.13,0,0,0,1,2.77A5.2,5.2,0,0,0,80.69,29.89Zm4,.19a1.48,1.48,0,0,1-1,.71c-.58.05-1.12-.54-1.19-1.3a2.67,2.67,0,0,1,.42-1.63A8.49,8.49,0,0,0,84.7,30.08Zm-1.65-8.44c.45,0,.73.29.78.89A3.66,3.66,0,0,1,83,24.92a4.93,4.93,0,0,1-.65-2C82.32,22.17,82.58,21.68,83.05,21.64Z"/>
    <polygon class="cls-2" points="95.34 32.31 97.16 32.5 98.23 22.4 100.53 22.65 100.71 20.97 94.31 20.29 94.14 21.96 96.41 22.21 95.34 32.31"/>
    <rect class="cls-2" x="97.66" y="26.68" width="11.84" height="1.83" transform="translate(54.77 123.03) rotate(-77.83)"/>
    <polygon class="cls-2" points="107.32 34.64 110.28 26.44 109.24 35.33 110.21 35.68 115.1 28.18 112.15 36.38 113.78 36.97 117.8 25.83 115.31 24.93 111.23 31.37 112.22 23.82 109.7 22.91 105.68 34.05 107.32 34.64"/>
    <path class="cls-2" d="M118.5,39.52c1.92,1.09,3.68.64,4.71-1.18a2.62,2.62,0,0,0-.54-3.58,2.47,2.47,0,0,0,3-1.33c1-1.67.4-3.23-1.53-4.32l-2.38-1.35-5.84,10.3Zm4-9.39.6.34c.61.34.88.62,1,1a1.45,1.45,0,0,1-.16,1.17,1.66,1.66,0,0,1-2.43.55l-.57-.33Zm-1.81,4.52a1.91,1.91,0,0,1,.85,2.75,1.58,1.58,0,0,1-2.41.55l-.81-.45,1.8-3.17Z"/>
    <polygon class="cls-2" points="127.69 45.84 128.72 44.5 125.91 42.35 128.13 39.44 130.21 41.03 131.23 39.69 129.16 38.1 131.06 35.62 133.87 37.77 134.89 36.43 130.63 33.17 123.43 42.58 127.69 45.84"/>
    <path class="cls-2" d="M130.44,48.42,133.89,45l.78.78-2.35,4.53,1.35,1.36,2.59-5a3.16,3.16,0,0,0,3.31-1,3.07,3.07,0,0,0,0-4.81l-2-2-8.4,8.35Zm7.21-7.17.47.48c.55.56.74.87.74,1.27a1.93,1.93,0,0,1-.7,1.32,2,2,0,0,1-1.33.7c-.4,0-.71-.19-1.26-.75l-.48-.47Z"/>
    <path class="cls-2" d="M59.19,149.91l1.34.7-.22.42c-.76,1.47-1.44,1.9-2.29,1.46a1.28,1.28,0,0,1-.7-1.36,6.57,6.57,0,0,1,.71-1.81l1.67-3.22a3.29,3.29,0,0,1,1-1.39,1.15,1.15,0,0,1,1.24,0c.89.45.94,1.24.19,2.69l1.63.84a5.2,5.2,0,0,0,.74-2.37,2.94,2.94,0,0,0-1.75-2.69A3,3,0,0,0,60,143c-.82.4-1.26.93-2.12,2.61l-1.5,2.9a6.34,6.34,0,0,0-1,3.05A2.68,2.68,0,0,0,57,153.88a2.48,2.48,0,0,0,2.52,0l-.17,1.06.84.43,2.7-5.23-3-1.53Z"/>
    <polygon class="cls-2" points="67.54 145.59 63.53 156.74 68.68 158.59 69.25 157 65.83 155.77 69.26 146.21 67.54 145.59"/>
    <path class="cls-2" d="M71.76,159.5l1.76.37,1-2.42L77,158l0,2.62,1.84.39.1-12.09-2.46-.52ZM77,156.25l-1.9-.4,2-5Z"/>
    <polygon class="cls-2" points="86.81 157.28 85.52 149.76 82.84 149.64 82.29 161.47 84.03 161.55 84.44 152.84 86.07 161.65 87.1 161.7 89.56 153.08 89.16 161.79 90.89 161.88 91.45 150.04 88.8 149.92 86.81 157.28"/>
    <path class="cls-2" d="M99.22,150a3.33,3.33,0,0,0-2.56-.49l-3,.33,1.29,11.78,1.82-.2-.52-4.77,1.2-.13a3.33,3.33,0,0,0,2.39-1,4.54,4.54,0,0,0-.6-5.49Zm-2.38,4.89L96,155l-.4-3.66.8-.09c1.46-.16,2,.23,2.12,1.61S98.3,154.76,96.84,154.92Z"/>
    <rect class="cls-2" x="103.27" y="148.37" width="1.83" height="11.85" transform="matrix(0.98, -0.22, 0.22, 0.98, -30.79, 26.07)"/>
    <polygon class="cls-2" points="110.71 146.24 113.09 153.22 107.89 147.21 106.14 147.8 109.96 159.01 111.61 158.45 109.07 150.99 114.63 157.42 116.18 156.89 112.36 145.68 110.71 146.24"/>
    <path class="cls-2" d="M119.81,148.73l.68,1.35,1.35-.69.22.43c.75,1.47.7,2.27-.15,2.71a1.29,1.29,0,0,1-1.51-.23,6.28,6.28,0,0,1-1.06-1.63l-1.65-3.23a3.18,3.18,0,0,1-.54-1.63,1.15,1.15,0,0,1,.69-1c.88-.45,1.55,0,2.3,1.42l1.63-.83a5.22,5.22,0,0,0-1.5-2,2.91,2.91,0,0,0-3.2-.14,3,3,0,0,0-1.73,2.12c-.16.9,0,1.57.88,3.24l1.49,2.91a6.44,6.44,0,0,0,1.9,2.58,2.69,2.69,0,0,0,2.81.12,2.48,2.48,0,0,0,1.44-2.07l.76.74.84-.43-2.68-5.23Z"/>
  </g>
</svg>
