<svg id="Layer_1" data-name="Layer 1" xmlns="http://www.w3.org/2000/svg" viewBox="0 0 510.97 498.64">
  <defs>
    <style>
      .cls-1 {
        fill: #fff;
      }

      .cls-2 {
        fill: #010101;
      }
    </style>
  </defs>
  <g>
    <rect class="cls-1" width="510.97" height="498.76"/>
    <g>
      <polygon class="cls-2" points="106.15 127.64 111.71 127.64 111.71 96.75 118.73 96.75 118.73 91.62 99.19 91.62 99.19 96.75 106.15 96.75 106.15 127.64"/>
      <rect class="cls-2" x="125.86" y="91.62" width="5.56" height="36.02"/>
      <path class="cls-2" d="M159.39,116.35V102.9c0-7.67-3.34-11.28-10.42-11.28h-8.8v36H149C156.05,127.63,159.39,124,159.39,116.35Zm-13.66,6.15V96.75h2.76c3.94,0,5.34,2,5.34,7.66v10.43c0,5.61-1.4,7.66-5.34,7.66Z"/>
      <polygon class="cls-2" points="184.02 122.5 173.27 122.5 173.27 111.38 181.21 111.38 181.21 106.25 173.27 106.25 173.27 96.75 184.02 96.75 184.02 91.62 167.71 91.62 167.71 127.64 184.02 127.64 184.02 122.5"/>
      <path class="cls-2" d="M201,122.94c-3,0-4.86-2.16-5.57-6.48L190.12,118c1.13,6.86,4.75,10.15,10.91,10.15,5.88,0,9.88-3.72,9.88-9.18a10.54,10.54,0,0,0-2.32-6.58,30.08,30.08,0,0,0-5.35-4.86c-3.83-2.92-3.83-2.92-4.75-4A5.39,5.39,0,0,1,197,100a3.56,3.56,0,0,1,3.61-3.68c2.27,0,3.89,1.79,4.76,5.35l5.34-1.57c-1.51-5.94-5-9-10.1-9-5.5,0-9.39,3.67-9.39,8.85a9.76,9.76,0,0,0,2,6c1.35,1.72,1.56,1.94,6.58,5.88,4.22,3.3,5.35,4.75,5.35,7A3.91,3.91,0,0,1,201,122.94Z"/>
      <polygon class="cls-2" points="235.69 118.08 240.07 118.08 240.07 111.33 246.93 111.33 246.93 107.06 240.07 107.06 240.07 100.47 235.69 100.47 235.69 107.06 228.84 107.06 228.84 111.33 235.69 111.33 235.69 118.08"/>
      <polygon class="cls-2" points="271.01 127.64 276.57 127.64 276.57 96.75 283.59 96.75 283.59 91.62 264.04 91.62 264.04 96.75 271.01 96.75 271.01 127.64"/>
      <rect class="cls-2" x="290.72" y="91.62" width="5.56" height="36.02"/>
      <polygon class="cls-2" points="310.32 101.12 316.53 127.64 319.66 127.64 325.93 101.12 325.93 127.64 331.22 127.64 331.22 91.62 323.17 91.62 318.15 114.24 313.18 91.62 305.03 91.62 305.03 127.64 310.32 127.64 310.32 101.12"/>
      <path class="cls-2" d="M359.68,117.43c0-4.75-1.95-7.24-6.81-8.64,4.05-1.24,5.94-3.78,5.94-8.05,0-5.83-3.78-9.12-10.53-9.12H340v36h9C355.68,127.63,359.68,123.8,359.68,117.43ZM345.53,96.75h2.1c2.11,0,3.24.32,4.16,1.13a4.49,4.49,0,0,1,1.35,3.35c0,3.08-2.21,5.07-5.61,5.07h-2Zm0,25.75V111.43h2c3.88,0,6.37,2.38,6.37,6,0,3.24-2,5.07-5.56,5.07Z"/>
      <polygon class="cls-2" points="384.14 122.5 373.39 122.5 373.39 111.38 381.33 111.38 381.33 106.25 373.39 106.25 373.39 96.75 384.14 96.75 384.14 91.62 367.83 91.62 367.83 127.64 384.14 127.64 384.14 122.5"/>
      <path class="cls-2" d="M396.77,112.84h3.35l4.75,14.79h5.84l-5.3-16.36c3.24-1.67,4.86-4.8,4.86-9.34,0-3.56-1.08-6.32-3.24-8.15-1.72-1.52-3.83-2.16-7.12-2.16h-8.7v36h5.56Zm0-16.09h2.06c2.37,0,3.45.27,4.32,1.13a6,6,0,0,1,1.35,4.32,6,6,0,0,1-1.35,4.37c-.87.87-1.95,1.14-4.32,1.14h-2.06Z"/>
      <path class="cls-2" d="M162.93,393.52h4.59V395c0,5-1.24,7.13-4.16,7.13a3.9,3.9,0,0,1-3.78-2.7,19.16,19.16,0,0,1-.59-5.89v-11c0-2.92.16-4,.81-5.19a3.5,3.5,0,0,1,3.29-1.83c3,0,4.27,2.05,4.27,7h5.56c0-3.46-.38-5.67-1.3-7.46-1.62-3.13-4.53-4.8-8.47-4.8-3.3,0-6.05,1.19-7.62,3.35s-2.1,4.26-2.1,10v9.93c0,5,.37,7.29,1.56,9.61a8.16,8.16,0,0,0,7.45,4.22,7.51,7.51,0,0,0,6.75-3.62l1,3.08h2.86V388.93H162.93Z"/>
      <polygon class="cls-2" points="186.8 370.79 181.24 370.79 181.24 406.81 197.87 406.81 197.87 401.68 186.8 401.68 186.8 370.79"/>
      <path class="cls-2" d="M211.42,370.79l-6.91,36H210l1.46-7.83h7.67l1.51,7.83h5.73l-7.29-36Zm.87,23.06,2.91-16.15,3,16.15Z"/>
      <polygon class="cls-2" points="246.52 393.41 241.55 370.79 233.4 370.79 233.4 406.81 238.69 406.81 238.69 380.29 244.9 406.81 248.03 406.81 254.3 380.29 254.3 406.81 259.59 406.81 259.59 370.79 251.54 370.79 246.52 393.41"/>
      <path class="cls-2" d="M277.57,370.79h-9.23v36h5.56V392.23h3.67c3.62,0,5.89-.71,7.56-2.33,1.95-1.83,2.86-4.53,2.86-8.42s-.91-6.53-2.86-8.37C283.46,371.49,281.19,370.79,277.57,370.79Zm-1.24,16.31H273.9V375.92h2.43c4.48,0,5.88,1.35,5.88,5.56S280.81,387.1,276.33,387.1Z"/>
      <rect class="cls-2" x="295.5" y="370.79" width="5.56" height="36.02"/>
      <polygon class="cls-2" points="324.5 393.2 315.43 370.79 309.81 370.79 309.81 406.81 315.1 406.81 315.1 382.83 324.82 406.81 329.79 406.81 329.79 370.79 324.5 370.79 324.5 393.2"/>
      <path class="cls-2" d="M347.61,393.52h4.59V395c0,5-1.24,7.13-4.16,7.13a3.89,3.89,0,0,1-3.78-2.7,19.16,19.16,0,0,1-.59-5.89v-11c0-2.92.16-4,.81-5.19a3.5,3.5,0,0,1,3.29-1.83c3,0,4.27,2.05,4.27,7h5.56c0-3.46-.38-5.67-1.3-7.46-1.62-3.13-4.53-4.8-8.48-4.8-3.29,0-6,1.19-7.61,3.35s-2.11,4.26-2.11,10v9.93c0,5,.38,7.29,1.57,9.61a8.15,8.15,0,0,0,7.45,4.22,7.51,7.51,0,0,0,6.75-3.62l1,3.08h2.86V388.93H347.61Z"/>
      <path class="cls-2" d="M369.46,325.91H141.51a4.43,4.43,0,0,0,0,8.86h228a4.43,4.43,0,1,0,0-8.86Z"/>
      <path class="cls-2" d="M349.15,353.32a4.43,4.43,0,1,0,0-8.85H161.82a4.43,4.43,0,1,0,0,8.85Z"/>
      <path class="cls-2" d="M407,239.69a4.43,4.43,0,0,0,7.67-4.43L394.2,199.78v-5.54L407,216.44a4.43,4.43,0,0,0,7.67-4.43L393.61,175.5l-.09-.12-.15-.23-.19-.24a2.2,2.2,0,0,0-.2-.23l-.18-.18-.22-.2c-.08-.06-.16-.13-.24-.18l-.24-.16a1.25,1.25,0,0,0-.12-.08.52.52,0,0,0-.13-.06l-.25-.13-.28-.11-.28-.1-.25-.06a1.5,1.5,0,0,0-.29-.06l-.31-.05h-.84l-.31.05-.29.06-.24.06-.29.1-.28.11-.25.13a.75.75,0,0,0-.13.06,1.25,1.25,0,0,0-.12.08l-.24.16c-.08,0-.16.12-.24.18l-.22.2-.18.18c-.07.07-.13.15-.2.23s-.13.15-.19.24l-.15.23-.09.12L364.86,212a4.43,4.43,0,0,0,7.67,4.43l12.81-22.2v5.54l-20.48,35.48a4.43,4.43,0,0,0,7.67,4.43l12.81-22.19V223l-20.48,35.48a4.41,4.41,0,0,0,1.62,6,4.35,4.35,0,0,0,2.21.6,4.43,4.43,0,0,0,3.84-2.22l12.81-22.19v5.54l-20.48,35.48a4.43,4.43,0,0,0,7.67,4.43L385.34,264v43.35h-57a98.36,98.36,0,1,0-145.71,0h-57V264l12.81,22.2a4.43,4.43,0,1,0,7.67-4.43l-20.48-35.48v-5.54l12.81,22.19a4.43,4.43,0,0,0,3.84,2.22,4.35,4.35,0,0,0,2.21-.6,4.42,4.42,0,0,0,1.62-6L125.63,223V217.5l12.81,22.19a4.43,4.43,0,1,0,7.67-4.43l-20.48-35.48v-5.54l12.81,22.2a4.43,4.43,0,1,0,7.67-4.43L125,175.5l-.08-.12-.15-.23c-.06-.09-.13-.16-.19-.24s-.13-.16-.2-.23l-.18-.18a2.11,2.11,0,0,0-.23-.19,2.23,2.23,0,0,0-.24-.19,1.88,1.88,0,0,0-.23-.16l-.12-.08a.75.75,0,0,0-.13-.06l-.25-.13-.28-.11-.29-.1-.24-.06c-.1,0-.2,0-.3-.06l-.3-.05h-.85l-.3.05a1.36,1.36,0,0,0-.29.06,1.83,1.83,0,0,0-.25.06l-.28.1-.29.11-.24.13-.14.06a1.25,1.25,0,0,1-.12.08l-.23.16c-.08,0-.16.12-.24.18l-.23.2-.17.18a2.2,2.2,0,0,0-.2.23l-.19.24a1.82,1.82,0,0,0-.15.23l-.09.12L96.28,212a4.44,4.44,0,0,0,1.63,6.05,4.43,4.43,0,0,0,6-1.62l12.82-22.2v5.54L96.28,235.26a4.43,4.43,0,0,0,1.63,6.05,4.43,4.43,0,0,0,6-1.62l12.82-22.19V223L96.28,258.52a4.42,4.42,0,0,0,1.63,6,4.3,4.3,0,0,0,2.21.6,4.42,4.42,0,0,0,3.83-2.22l12.82-22.19v5.54L96.28,281.77a4.43,4.43,0,0,0,1.63,6.05,4.43,4.43,0,0,0,6-1.62L116.77,264v47.78a4.43,4.43,0,0,0,4.43,4.43c.12,0,.23,0,.35,0s.27,0,.41,0H389c.14,0,.27,0,.41,0s.23,0,.35,0a4.43,4.43,0,0,0,4.43-4.43V264L407,286.2a4.43,4.43,0,0,0,7.67-4.43L394.2,246.29v-5.54L407,262.94a4.43,4.43,0,0,0,3.84,2.22,4.35,4.35,0,0,0,2.21-.6,4.41,4.41,0,0,0,1.62-6L394.2,223V217.5Zm-213.08,67,61.55-106.61,24.33,42.13-37.23,64.48Zm58.88,0,32.11-55.62L317,306.68Z"/>
    </g>
  </g>
</svg>
