<svg id="Layer_1" data-name="Layer 1" xmlns="http://www.w3.org/2000/svg" viewBox="0 0 510.97 498.64">
  <defs>
    <style>
      .cls-1 {
        fill: #fff;
      }

      .cls-2 {
        fill: #010101;
      }
    </style>
  </defs>
  <g>

    <g>
      <path class="cls-2" d="M255.48,77c-95,0-172.31,77.3-172.31,172.31s77.3,172.31,172.31,172.31,172.31-77.3,172.31-172.31S350.5,77,255.48,77Zm0,328.62c-86.19,0-156.31-70.12-156.31-156.31S169.29,93,255.48,93s156.31,70.12,156.31,156.31S341.67,405.63,255.48,405.63Z"/>
      <path class="cls-2" d="M348.11,312.47H162.86a3.6,3.6,0,1,0,0,7.2H348.11a3.6,3.6,0,0,0,0-7.2Z"/>
      <path class="cls-2" d="M331.6,327.55H179.37a3.6,3.6,0,0,0,0,7.2H331.6a3.6,3.6,0,0,0,0-7.2Z"/>
      <path class="cls-2" d="M378.63,242.4a3.6,3.6,0,1,0,6.23-3.6L368.21,210v-4.5l10.42,18a3.59,3.59,0,0,0,3.12,1.8,3.55,3.55,0,0,0,1.79-.49,3.6,3.6,0,0,0,1.32-4.91l-17.13-29.67s-.05-.06-.07-.1l-.12-.19c-.05-.06-.1-.13-.16-.19a1.46,1.46,0,0,0-.16-.19l-.14-.14-.19-.16-.19-.16-.19-.12-.1-.07-.11,0-.2-.1-.23-.09-.23-.08-.2-.06-.24,0-.24,0h-.69l-.25,0-.24,0-.19.06-.24.08-.23.09-.2.1-.11,0-.09.07-.19.12-.2.16-.18.16-.15.14-.16.19-.15.19-.12.19a.61.61,0,0,0-.07.1l-17.13,29.67a3.6,3.6,0,1,0,6.23,3.6l10.41-18V210L344.37,238.8a3.6,3.6,0,1,0,6.23,3.6l10.41-18v4.5L344.37,257.7a3.6,3.6,0,1,0,6.23,3.6l10.41-18v4.5L344.37,276.6a3.6,3.6,0,0,0,1.31,4.92,3.68,3.68,0,0,0,1.8.48,3.62,3.62,0,0,0,3.12-1.8l10.41-18v35.23H314.7a79.94,79.94,0,1,0-118.41,0H150V262.16l10.42,18a3.6,3.6,0,1,0,6.23-3.6L150,247.77v-4.5l10.42,18a3.57,3.57,0,0,0,3.12,1.8,3.51,3.51,0,0,0,1.79-.48,3.61,3.61,0,0,0,1.32-4.92L150,228.87v-4.5l10.42,18a3.57,3.57,0,0,0,3.12,1.8,3.51,3.51,0,0,0,1.79-.48,3.61,3.61,0,0,0,1.32-4.92L150,210v-4.5l10.42,18a3.59,3.59,0,0,0,3.12,1.8,3.52,3.52,0,0,0,1.79-.49,3.6,3.6,0,0,0,1.32-4.91l-17.13-29.67s-.05-.06-.07-.1l-.12-.19-.15-.19-.17-.19a.93.93,0,0,0-.14-.14l-.19-.16-.19-.16-.19-.12-.1-.07-.1,0-.21-.1-.23-.09-.23-.08-.19-.06-.25,0-.24,0H146l-.25,0-.24,0-.19.06-.24.08-.23.09-.2.1-.11,0-.09.07-.19.12-.2.16-.18.16-.15.14-.16.19-.15.19-.12.19s-.05.06-.07.1l-17.13,29.67a3.58,3.58,0,0,0,1.32,4.91,3.52,3.52,0,0,0,1.79.49,3.59,3.59,0,0,0,3.12-1.8l10.42-18V210L126.11,238.8a3.59,3.59,0,0,0,1.32,4.92,3.51,3.51,0,0,0,1.79.48,3.57,3.57,0,0,0,3.12-1.8l10.42-18v4.5L126.11,257.7a3.59,3.59,0,0,0,1.32,4.92,3.51,3.51,0,0,0,1.79.48,3.57,3.57,0,0,0,3.12-1.8l10.42-18v4.5L126.11,276.6a3.6,3.6,0,1,0,6.23,3.6l10.42-18V301a3.6,3.6,0,0,0,3.59,3.6c.1,0,.19,0,.29,0l.33,0H364l.33,0,.28,0a3.6,3.6,0,0,0,3.6-3.6V262.16l10.42,18a3.59,3.59,0,0,0,3.12,1.8,3.6,3.6,0,0,0,3.11-5.4l-16.65-28.83v-4.5l10.42,18a3.6,3.6,0,0,0,4.91,1.32,3.61,3.61,0,0,0,1.32-4.92l-16.65-28.83v-4.5ZM205.46,296.84l50-86.64,19.77,34.25L245,296.84Zm47.85,0,26.1-45.2,26.09,45.2Z"/>
      <polygon class="cls-2" points="160.7 159.12 174.6 172.72 177.05 170.21 163.15 156.61 166.24 153.45 163.93 151.19 155.32 159.99 157.63 162.25 160.7 159.12"/>
      <rect class="cls-2" x="175.54" y="143.38" width="3.5" height="22.68" transform="translate(-57.94 148.56) rotate(-39.61)"/>
      <path class="cls-2" d="M194.29,156.23c3.73-2.44,4.24-5.5,1.6-9.54l-4.64-7.09c-2.64-4-5.65-4.79-9.38-2.35l-4.64,3,12.42,19Zm-10.91-16.11c2.08-1.36,3.51-.79,5.46,2.2l3.6,5.49c1.93,3,1.9,4.52-.18,5.88l-1.45.95-8.88-13.57Z"/>
      <polygon class="cls-2" points="213.03 146.15 211.65 143.23 205.53 146.12 202.54 139.79 207.06 137.66 205.67 134.74 201.16 136.87 198.6 131.46 204.71 128.57 203.33 125.65 194.05 130.04 203.75 150.54 213.03 146.15"/>
      <path class="cls-2" d="M213.66,131.34c1.13.79,1.3.88,5.06,2.3,3.15,1.19,4.11,1.85,4.54,3.21a2.47,2.47,0,0,1-1.7,3.24c-1.78.56-3.32-.38-4.56-2.85l-2.92,1.95c2,3.91,4.77,5.2,8.47,4.05,3.53-1.11,5.23-4.1,4.21-7.38a6.66,6.66,0,0,0-2.64-3.52,19.23,19.23,0,0,0-4.12-1.91c-2.86-1-2.86-1-3.6-1.48a3.36,3.36,0,0,1-1.59-1.89,2.23,2.23,0,0,1,1.48-2.88c1.36-.43,2.67.34,3.86,2.31l2.92-1.94c-2-3.29-4.68-4.49-7.76-3.52-3.31,1-5,4-4,7.09A6.11,6.11,0,0,0,213.66,131.34Z"/>
      <path class="cls-2" d="M237.65,133.74a5.33,5.33,0,0,0,5.67,5.07c1.66-.15,2.83-.84,4.24-2.55A6.7,6.7,0,0,0,252,138.1l-.32-3.39a4.18,4.18,0,0,1-2.43-1.2,11.75,11.75,0,0,0,1.27-5.79l-3.09-.09a8.28,8.28,0,0,1-.58,3.57,20.08,20.08,0,0,1-3-4.16c1.41-2.11,1.53-2.29,2-3.12a6.87,6.87,0,0,0,1-4c-.26-2.71-2.2-4.47-4.64-4.25-2.77.26-4.49,2.75-4.18,6a11.76,11.76,0,0,0,2,5.31C238.16,129.7,237.46,131.68,237.65,133.74Zm7.69.38a2.79,2.79,0,0,1-2,1.34c-1.12.11-2.15-1-2.28-2.48a5.08,5.08,0,0,1,.8-3.12A16.63,16.63,0,0,0,245.34,134.12ZM242.19,118c.84-.08,1.38.55,1.49,1.7a7,7,0,0,1-1.52,4.58,9.66,9.66,0,0,1-1.25-3.84C240.78,119,241.27,118,242.19,118Z"/>
      <polygon class="cls-2" points="265.7 138.38 269.19 138.75 271.25 119.41 275.64 119.88 275.98 116.66 263.74 115.36 263.4 118.57 267.76 119.04 265.7 138.38"/>
      <rect class="cls-2" x="270.15" y="127.6" width="22.68" height="3.5" transform="translate(95.69 377.24) rotate(-77.83)"/>
      <polygon class="cls-2" points="288.64 142.84 294.31 127.13 292.32 144.16 294.17 144.83 303.55 130.47 297.88 146.17 301.02 147.3 308.71 125.97 303.95 124.25 296.14 136.58 298.03 122.11 293.2 120.37 285.51 141.71 288.64 142.84"/>
      <path class="cls-2" d="M310.05,152.19c3.67,2.08,7,1.22,9-2.27,1.48-2.6,1.19-4.57-1-6.85a4.74,4.74,0,0,0,5.75-2.56c1.81-3.19.77-6.17-2.93-8.26l-4.55-2.59-11.19,19.73Zm7.7-18,1.15.65a3.65,3.65,0,0,1,1.93,1.92,2.88,2.88,0,0,1-.3,2.25c-1,1.68-2.79,2.09-4.66,1l-1.09-.62Zm-3.47,8.66c2.13,1.21,2.75,3.28,1.63,5.26-1,1.78-2.67,2.16-4.62,1.06l-1.54-.87,3.44-6.07Z"/>
      <polygon class="cls-2" points="327.64 164.27 329.61 161.71 324.24 157.59 328.49 152.03 332.46 155.07 334.43 152.51 330.46 149.47 334.1 144.72 339.47 148.83 341.43 146.27 333.28 140.03 319.49 158.03 327.64 164.27"/>
      <path class="cls-2" d="M332.91,169.21l6.61-6.57,1.49,1.5-4.5,8.69,2.59,2.6,5-9.62c2.18.7,4.3,0,6.32-2a5.88,5.88,0,0,0,0-9.21l-3.86-3.88-16.08,16ZM346.7,155.5l.92.92c1.05,1.06,1.41,1.66,1.41,2.43a4.84,4.84,0,0,1-3.88,3.86c-.77,0-1.37-.37-2.43-1.43l-.91-.91Z"/>
      <path class="cls-2" d="M196.49,363.54l2.57,1.32-.42.82c-1.45,2.81-2.76,3.63-4.39,2.78a2.44,2.44,0,0,1-1.33-2.6,11.86,11.86,0,0,1,1.36-3.46l3.19-6.17c.84-1.63,1.24-2.19,1.95-2.66a2.2,2.2,0,0,1,2.37-.08c1.69.87,1.79,2.38.36,5.16l3.11,1.61a10,10,0,0,0,1.43-4.55,5.58,5.58,0,0,0-3.36-5.13,5.68,5.68,0,0,0-5.22-.33c-1.58.76-2.42,1.78-4.07,5l-2.87,5.56c-1.43,2.78-1.89,4.19-1.9,5.83a5.12,5.12,0,0,0,3,4.51,4.73,4.73,0,0,0,4.82-.08l-.32,2,1.6.83,5.16-10L197.81,361Z"/>
      <polygon class="cls-2" points="212.49 355.26 204.81 376.61 214.67 380.15 215.76 377.11 209.2 374.75 215.78 356.45 212.49 355.26"/>
      <path class="cls-2" d="M220.56,381.89l3.36.7,1.92-4.63,4.72,1-.08,5,3.53.74.18-23.14-4.7-1Zm10.1-6.22-3.62-.76,3.89-9.58Z"/>
      <polygon class="cls-2" points="249.37 377.63 246.91 363.25 241.78 363.01 240.72 385.67 244.05 385.82 244.83 369.14 247.96 386 249.93 386.1 254.65 369.6 253.87 386.28 257.2 386.44 258.25 363.78 253.19 363.55 249.37 377.63"/>
      <path class="cls-2" d="M273.13,363.76c-1.16-.9-2.63-1.18-4.89-.93l-5.78.63L264.93,386l3.48-.38-1-9.12,2.3-.26c2.26-.25,3.63-.84,4.57-2,1.09-1.28,1.48-3,1.21-5.47S274.47,364.78,273.13,363.76Zm-4.55,9.36-1.52.16-.77-7,1.52-.17c2.81-.31,3.78.44,4.07,3.08S271.38,372.81,268.58,373.12Z"/>
      <rect class="cls-2" x="280.88" y="360.59" width="3.5" height="22.68" transform="translate(-73.49 69.62) rotate(-12.44)"/>
      <polygon class="cls-2" points="295.14 356.51 299.69 369.86 289.74 358.35 286.39 359.49 293.7 380.95 296.85 379.88 291.99 365.59 302.64 377.91 305.6 376.9 298.3 355.43 295.14 356.51"/>
      <path class="cls-2" d="M312.55,361.28l1.32,2.57,2.57-1.32.42.82c1.44,2.81,1.35,4.35-.29,5.19a2.44,2.44,0,0,1-2.89-.43,11.79,11.79,0,0,1-2-3.13l-3.17-6.17c-.83-1.64-1.05-2.29-1-3.14a2.2,2.2,0,0,1,1.32-2c1.69-.87,3-.08,4.41,2.71l3.11-1.6a10,10,0,0,0-2.86-3.8,5.59,5.59,0,0,0-6.13-.26,5.72,5.72,0,0,0-3.31,4.06c-.3,1.72,0,3,1.69,6.2l2.85,5.57c1.43,2.78,2.31,4,3.64,4.93a5.12,5.12,0,0,0,5.38.22,4.72,4.72,0,0,0,2.75-4l1.45,1.43,1.61-.82-5.13-10Z"/>
    </g>
  </g>
</svg>
